{"title":"Ancient Evil Scream of the Mummy 1999 Hr.Janno (Eesti keeles)","uid":8007909,"size":734145077,"categoryP":"video","categoryS":"movies","magnet":"?xt=urn:btih:d4801593c3710e6a2fe9c8e6f3141aaf2a0d06c7&amp;dn=Ancient+Evil+Scream+of+the+Mummy+1999+Hr.Janno+%28Eesti+keeles%29&amp;tr=udp%3A%2F%2Ftracker.openbittorrent.com%3A80&amp;tr=udp%3A%2F%2Fopen.demonii.com%3A1337&amp;tr=udp%3A%2F%2Ftracker.coppersurfer.tk%3A6969&amp;tr=udp%3A%2F%2Fexodus.desync.com%3A6969","seeders":0,"leechers":2,"uploader":"Hr.Janno","files":-1,"time":1357935394,"description":"Format                                   : AVI\nFormat/Info                              : Audio Video Interleave\nFile size                                : 700 MiB\nDuration                                 : 1h 21mn\nOverall bit rate mode                    : Variable\nOverall bit rate                         : 1 196 Kbps\nWriting application                      : VirtualDubMod 1.5.4.1 (build 2178/release)\nWriting library                          : VirtualDubMod build 2178/release\n\nVideo\nID                                       : 0\nFormat                                   : MPEG-4 Visual\nFormat profile                           : Advanced Simple@L5\nFormat settings, BVOP                    : 1\nFormat settings, QPel                    : No\nFormat settings, GMC                     : No warppoints\nFormat settings, Matrix                  : Custom\nCodec ID                                 : XVID\nCodec ID/Hint                            : XviD\nDuration                                 : 1h 21mn\nBit rate                                 : 1 072 Kbps\nWidth                                    : 560 pixels\nHeight                                   : 416 pixels\nDisplay aspect ratio                     : 4:3\nFrame rate                               : 25.000 fps\nColor space                              : YUV\nChroma subsampling                       : 4:2:0\nBit depth                                : 8 bits\nScan type                                : Progressive\nCompression mode                         : Lossy\nBits/(Pixel*Frame)                       : 0.184\nStream size                              : 628 MiB (90%)\nWriting library                          : XviD 1.1.2 (UTC 2006-11-01)\n\nAudio\nID                                       : 1\nFormat                                   : MPEG Audio\nFormat version                           : Version 1\nFormat profile                           : Layer 3\nMode                                     : Joint stereo\nMode extension                           : MS Stereo\nCodec ID                                 : 55\nCodec ID/Hint                            : MP3\nDuration                                 : 1h 21mn\nBit rate mode                            : Variable\nBit rate                                 : 111 Kbps\nNominal bit rate                         : 128 Kbps\nChannel(s)                               : 2 channels\nSampling rate                            : 48.0 KHz\nCompression mode                         : Lossy\nDelay relative to video                  : 1s 488ms\nStream size                              : 64.8 MiB (9%)\nAlignment                                : Split accross interleaves\nInterleave, duration                     : 24 ms (0.60 video frame)\nInterleave, preload duration             : 1750 ms\nWriting library                          : LAME3.98r\nEncoding settings                        : -m j -V 4 -q 2 -lowpass 17 --abr 128\nLanguage                                 : English\nSubtitles                                : Estonia (Eesti.SRT)","torrent":{"xt":"urn:btih:d4801593c3710e6a2fe9c8e6f3141aaf2a0d06c7","amp;dn":"Ancient+Evil+Scream+of+the+Mummy+1999+Hr.Janno+%28Eesti+keeles%29","amp;tr":["udp%3A%2F%2Ftracker.openbittorrent.com%3A80","udp%3A%2F%2Fopen.demonii.com%3A1337","udp%3A%2F%2Ftracker.coppersurfer.tk%3A6969","udp%3A%2F%2Fexodus.desync.com%3A6969"],"infoHash":"d4801593c3710e6a2fe9c8e6f3141aaf2a0d06c7","infoHashBuffer":{"type":"Buffer","data":[212,128,21,147,195,113,14,106,47,233,200,230,243,20,26,175,42,13,6,199]},"announce":[],"urlList":[]}}